<svg xmlns="http://www.w3.org/2000/svg" width="19.75" height="19.478" viewBox="0 0 19.75 19.478">
  <g id="_753961_cabins_accomodation_cottage_home_house_icon" data-name="753961_cabins_accomodation_cottage_home_house_icon" transform="translate(0.019 -0.421)">
    <path id="Path_62" data-name="Path 62" d="M17.057,10.2a.557.557,0,0,0-.84-.024L10.2,16.191h0c-.791.791,0,.839,0,.839h.076c.119,0,.588.065.588.788V25.1a1.312,1.312,0,0,0,1.3,1.422h8.718c1.284,0,1.34-1.343,1.342-1.548V17.9c0-.905.741-.866.741-.866h.158c.114,0,.723-.04-.018-.782Z" transform="translate(-6.824 -6.619)" fill="#f7f7f7"/>
    <path id="Path_63" data-name="Path 63" d="M19.333,9.356,11.1,1.008,11.084,1A1.534,1.534,0,0,0,8.79.889L.33,9.236s-.651.607-.176,1.087l.058.059s.389.451,1.072-.224l7.85-7.744h0l.043-.043a.981.981,0,0,1,1.468.042L18.4,10.276s.625.647,1.06.218l.173-.17h0C19.967,9.97,19.333,9.356,19.333,9.356Z" transform="translate(0 0)" fill="#f7f7f7"/>
  </g>
</svg>
