<svg xmlns="http://www.w3.org/2000/svg" width="24.333" height="19.639" viewBox="0 0 24.333 19.639">
  <path id="_227601_right_arrow_icon" data-name="227601_right_arrow_icon" d="M9.217,26.753H28.18l-6.526,6.526A1.217,1.217,0,1,0,23.374,35l8.6-8.6h0a1.228,1.228,0,0,0,.151-.185c.02-.031.035-.064.052-.1A1.218,1.218,0,0,0,32.24,26a1.082,1.082,0,0,0,.039-.126c.01-.034.023-.066.03-.1a1.216,1.216,0,0,0,.024-.239h0v0a1.226,1.226,0,0,0-.024-.235c-.007-.036-.021-.07-.032-.106a1.128,1.128,0,0,0-.037-.121,1.259,1.259,0,0,0-.063-.12c-.016-.03-.03-.06-.048-.089a1.2,1.2,0,0,0-.152-.187l-8.6-8.6a1.217,1.217,0,1,0-1.721,1.721l6.526,6.526H9.217a1.217,1.217,0,0,0,0,2.433Z" transform="translate(-8 -15.716)" fill="#fff"/>
</svg>
