<?xml version="1.0" ?><svg enable-background="new 0 0 48 48" id="Layer_1" version="1.1" viewBox="0 0 48 48" xml:space="preserve" xmlns="http://www.w3.org/2000/svg" xmlns:xlink="http://www.w3.org/1999/xlink"><g><circle cx="24" cy="24" fill="#68BD61" r="23.8"/><g><path d="M34.2,15.5c0.2,0.2,0.4,0.3,0.7,0.3c0.3,0,0.5-0.1,0.7-0.3c0.4-0.4,0.4-1,0-1.4l-1.7-1.7    c-0.4-0.4-1-0.4-1.4,0c-0.4,0.4-0.4,1,0,1.4L34.2,15.5z" fill="#FFFFFF"/><path d="M22,27.2c0.3,0,0.5-0.1,0.7-0.3l1.2-1.2l0.6,0.6c0.2,0.2,0.4,0.3,0.7,0.3s0.5-0.1,0.7-0.3l7.9-8    c0.4-0.4,0.4-1,0-1.4l-2.6-2.7c-0.2-0.2-0.4-0.3-0.7-0.3c-0.3,0-0.5,0.1-0.7,0.3l-7.9,8c-0.4,0.4-0.4,1,0,1.4l0.6,0.6l-1.2,1.3    c-0.4,0.4-0.4,1,0,1.4C21.5,27.1,21.8,27.2,22,27.2z" fill="#FFFFFF"/><path d="M18.5,30.8h4.7c0.5,0,1-0.4,1-1s-0.4-1-1-1h-4.7c-0.5,0-1,0.4-1,1S18,30.8,18.5,30.8z" fill="#FFFFFF"/><path d="M34.9,33.9h-3.1c0.4-0.4,0.8-0.9,1.1-1.4c2-3.2,1.7-7.2-0.5-10l-1.4,1.4c1.6,2.2,1.7,5.2,0.2,7.5    c-0.7,1.1-1.7,2-2.9,2.5H13.1c-0.5,0-1,0.4-1,1s0.4,1,1,1h15.5c0,0,0,0,0,0c0,0,0,0,0,0h6.3c0.5,0,1-0.4,1-1S35.4,33.9,34.9,33.9z    " fill="#FFFFFF"/></g></g></svg>