<svg xmlns="http://www.w3.org/2000/svg" width="23.5" height="19.099" viewBox="0 0 23.5 19.099">
  <path id="_317720_social_media_tweet_twitter_social_icon" data-name="317720_social media_tweet_twitter_social_icon" d="M23.5,5.26a9.569,9.569,0,0,1-2.769.759,4.839,4.839,0,0,0,2.121-2.666,9.655,9.655,0,0,1-3.062,1.169,4.827,4.827,0,0,0-8.217,4.4A13.69,13.69,0,0,1,1.636,3.882,4.829,4.829,0,0,0,3.128,10.32a4.807,4.807,0,0,1-2.183-.6c0,.02,0,.041,0,.06a4.824,4.824,0,0,0,3.867,4.728,4.844,4.844,0,0,1-2.176.083,4.827,4.827,0,0,0,4.5,3.348A9.671,9.671,0,0,1,1.151,20,9.744,9.744,0,0,1,0,19.934,13.657,13.657,0,0,0,7.391,22.1,13.625,13.625,0,0,0,21.109,8.381c0-.209-.006-.417-.015-.624A9.781,9.781,0,0,0,23.5,5.26Z" transform="translate(-0.001 -3)" fill="#f5f3f3"/>
</svg>
