<?xml version="1.0" ?><svg id="Layer_1" style="enable-background:new 0 0 65 65;" version="1.1" viewBox="0 0 65 65" xml:space="preserve" xmlns="http://www.w3.org/2000/svg" xmlns:xlink="http://www.w3.org/1999/xlink"><style type="text/css">
	.st0{fill:#FBD51A;}
	.st1{fill:#FFFFFF;}
	.st2{fill:#56E0C5;}
	.st3{fill:#DEBB7E;}
	.st4{fill:#7EAEF4;}
	.st5{fill:#FF9F0D;}
	.st6{fill:#C6DEAC;}
	.st7{fill:#76D6ED;}
	.st8{fill:#FF4055;}
	.st9{fill:#DE72F5;}
	.st10{fill:#BEE920;}
</style><g><circle class="st4" cx="32.5" cy="32.5" r="32"/><path class="st1" d="M18.3,54.5c4.5,0,8.2-3.4,8.7-7.8h11c0.5,4.4,4.2,7.8,8.7,7.8c4.8,0,8.8-3.9,8.8-8.8s-3.9-8.8-8.8-8.8   c-1.1,0-2.1,0.2-3,0.5l-6.4-12.8c2.4-1.6,4-4.3,4-7.3c0-4.8-3.9-8.8-8.8-8.8s-8.8,3.9-8.8,8.8c0,3.1,1.6,5.8,4,7.3l-6.4,12.8   c-0.9-0.3-1.9-0.5-3-0.5c-4.8,0-8.8,3.9-8.8,8.8S13.4,54.5,18.3,54.5z M53.5,45.7c0,3.7-3,6.8-6.8,6.8s-6.8-3-6.8-6.8   s3-6.8,6.8-6.8S53.5,42,53.5,45.7z M25.7,17.3c0-3.7,3-6.8,6.8-6.8s6.8,3,6.8,6.8s-3,6.8-6.8,6.8S25.7,21,25.7,17.3z M29.5,25.5   c0.9,0.3,1.9,0.5,3,0.5c1.1,0,2.1-0.2,3-0.5l6.4,12.8c-2.1,1.4-3.6,3.7-3.9,6.3H27c-0.3-2.7-1.8-5-3.9-6.3L29.5,25.5z M18.3,38.9   c3.7,0,6.8,3,6.8,6.8s-3,6.8-6.8,6.8c-3.7,0-6.8-3-6.8-6.8S14.5,38.9,18.3,38.9z"/></g></svg>