<?xml version="1.0" ?><!DOCTYPE svg  PUBLIC '-//W3C//DTD SVG 1.1//EN'  'http://www.w3.org/Graphics/SVG/1.1/DTD/svg11.dtd'><svg enable-background="new 0 0 380 380" height="380px" id="Layer_1" version="1.1" viewBox="0 0 380 380" width="380px" xml:space="preserve" xmlns="http://www.w3.org/2000/svg" xmlns:xlink="http://www.w3.org/1999/xlink"><g><g><circle cx="190" cy="190" fill="#2CA5C3" r="190"/><g><path d="M138.01,106.024v0.098v0.005l-0.002,0.031l-0.002,0.065v0.006l-0.004,0.062l-0.004,0.041l-0.002,0.024      l-0.006,0.065v0.011l-0.006,0.055l-0.006,0.047l-0.002,0.018l-0.012,0.081l-0.008,0.048l-0.01,0.052l-0.002,0.014l-0.012,0.063      l-0.004,0.021l-0.002,0.006l-0.016,0.077l-0.004,0.014l-0.002,0.009l-0.016,0.062l-0.006,0.027l-0.01,0.035l-0.006,0.025      l-0.012,0.037l-0.018,0.061l-0.01,0.031l-0.01,0.03l-0.02,0.061v0.003l-0.021,0.058l-0.021,0.06l-0.021,0.059l-0.004,0.007      l-0.02,0.053l-0.018,0.038l-0.008,0.02l-0.025,0.059l-0.006,0.012l-0.02,0.045l-0.021,0.042l-0.006,0.016l-0.029,0.056      l-0.008,0.016l-0.02,0.04l-0.004,0.007l-0.027,0.049l-0.029,0.055l-0.027,0.045l-0.012,0.021l-0.025,0.042l-0.033,0.053      l-0.002,0.004l-0.031,0.049l-0.033,0.051l-0.002,0.001l-0.035,0.052c-0.07,0.101-0.145,0.197-0.223,0.29l-0.01,0.012      l-0.037,0.042l-0.041,0.047l-0.035,0.037l-0.014,0.016l-0.035,0.038l-0.045,0.045l-0.088,0.087l-0.045,0.042l-0.041,0.037      l-0.006,0.005l-0.043,0.038l-0.004,0.004l-0.047,0.04c-0.096,0.079-0.195,0.155-0.299,0.226l-0.033,0.023l-0.018,0.012      l-0.053,0.035l-0.051,0.032l-0.002,0.001l-13.455,13.455c-1.562,1.562-4.096,1.562-5.656,0c-1.562-1.562-1.562-4.094,0-5.655      l12.998-13V78.023c0-2.21,1.791-4,4-4c2.209,0,4,1.79,4,4V106.024L138.01,106.024z M278.13,144.972      c0.582-3.25,3.689-5.411,6.938-4.828c3.248,0.582,5.41,3.688,4.828,6.938l-15.512,86.509      c-1.334,7.449-5.174,13.827-10.57,18.342c-5.414,4.53-12.371,7.192-19.919,7.192h-44.961l51.228,48.54      c2.381,2.29,2.455,6.079,0.164,8.461c-2.292,2.381-6.079,2.454-8.462,0.163l-61.67-58.537c-1.332-1.1-2.182-2.765-2.182-4.627      c0-3.314,2.688-6.001,6-6.001h59.883c4.664,0,8.935-1.621,12.232-4.379c3.314-2.774,5.674-6.69,6.492-11.264L278.13,144.972      L278.13,144.972z M134.01,62.024c12.15,0,23.15,4.925,31.113,12.887c7.963,7.963,12.887,18.963,12.887,31.113      c0,12.149-4.924,23.15-12.887,31.111c-7.963,7.963-18.963,12.888-31.113,12.888c-12.148,0-23.148-4.925-31.111-12.888      c-7.963-7.961-12.889-18.962-12.889-31.111c0-12.15,4.926-23.15,12.889-31.113C110.861,66.949,121.861,62.024,134.01,62.024      L134.01,62.024z M159.467,80.567c-6.514-6.514-15.516-10.543-25.457-10.543c-9.941,0-18.941,4.029-25.455,10.543      c-6.516,6.515-10.545,15.516-10.545,25.457s4.029,18.941,10.545,25.455c6.514,6.515,15.514,10.545,25.455,10.545      c9.941,0,18.943-4.03,25.457-10.545c6.514-6.514,10.543-15.514,10.543-25.455S165.98,87.082,159.467,80.567L159.467,80.567z" fill="#FFFFFF"/><path clip-rule="evenodd" d="M257.419,88.927c-13.257,0-24.001,10.744-24.001,24      c0,13.255,10.744,24,24.001,24c13.254,0,24-10.745,24-24C281.419,99.671,270.673,88.927,257.419,88.927L257.419,88.927z       M171.012,306.976c0,6.076-4.924,11.001-11,11.001c-6.074,0-11-4.925-11-11.001v-54.258l-16.896,38.072      c-2.443,5.529-8.908,8.03-14.438,5.586c-5.529-2.443-8.029-8.908-5.586-14.438l28.65-64.557      c2.045-4.604,5.359-8.241,9.424-10.607c4.057-2.362,8.834-3.448,13.814-2.955l9.047,0.896c0.143-5.368,4.207-9.958,9.697-10.605      l32.252-3.87c5.172-20.482,14.557-42.161,39.845-44.179c1.102-0.151,2.244-0.139,3.396,0.062      c5.98,1.044,9.982,6.738,8.938,12.718l-12.326,70.637c-0.711,5.388-5.323,9.547-10.905,9.547h-60.912      c-3.297,0-6.295,1.35-8.473,3.526c-2.178,2.177-3.527,5.175-3.527,8.473V306.976L171.012,306.976z" fill="#FFFFFF" fill-rule="evenodd"/></g></g></g></svg>