<svg id="_317725_linkedin_social_icon" data-name="317725_linkedin_social_icon" xmlns="http://www.w3.org/2000/svg" width="32" height="32" viewBox="0 0 32 32">
  <path id="Path_4" data-name="Path 4" d="M32,30a2,2,0,0,1-2,2H2a2,2,0,0,1-2-2V2A2,2,0,0,1,2,0H30a2,2,0,0,1,2,2Z" fill="#00b2fa"/>
  <g id="Group_1" data-name="Group 1" transform="translate(0 -2)">
    <rect id="Rectangle_2" data-name="Rectangle 2" width="4" height="14" transform="translate(7 11)" fill="#f5f3f3"/>
    <path id="Path_5" data-name="Path 5" d="M20.5,11c-2.791,0-3.271,1.018-3.5,2V11H13V25h4V17a1.8,1.8,0,0,1,2-2,1.8,1.8,0,0,1,2,2v8h4V18C25,14,24.479,11,20.5,11Z" fill="#f5f3f3"/>
    <circle id="Ellipse_2" data-name="Ellipse 2" cx="2" cy="2" r="2" transform="translate(7 6)" fill="#f5f3f3"/>
  </g>
</svg>
