<?xml version="1.0" ?><svg enable-background="new 0 0 48 48" id="Layer_1" version="1.1" viewBox="0 0 48 48" xml:space="preserve" xmlns="http://www.w3.org/2000/svg" xmlns:xlink="http://www.w3.org/1999/xlink"><g><circle cx="24" cy="24" fill="#FBCA60" r="23.8"/><g><path d="M25.7,24c2.5-1.6,8-5.8,8-10.9c0-0.5-0.4-1-1-1s-1,0.4-1,1c0,4.5-5.9,8.5-7.7,9.6    c-1.8-1.1-7.7-5.1-7.7-9.6c0-0.5-0.4-1-1-1s-1,0.4-1,1c0,5.1,5.5,9.3,8,10.9c-2.5,1.6-8,5.8-8,10.9c0,0.5,0.4,1,1,1s1-0.4,1-1    c0-4.5,5.9-8.5,7.7-9.6c1.8,1.1,7.7,5.1,7.7,9.6c0,0.5,0.4,1,1,1s1-0.4,1-1C33.6,29.8,28.1,25.6,25.7,24z" fill="#FFFFFF"/><path d="M20.2,14.1h7.7c0.5,0,1-0.4,1-1s-0.4-1-1-1h-7.7c-0.5,0-1,0.4-1,1S19.6,14.1,20.2,14.1z" fill="#FFFFFF"/><path d="M21.9,17.1c-0.5,0-1,0.4-1,1s0.4,1,1,1h4.3c0.5,0,1-0.4,1-1s-0.4-1-1-1H21.9z" fill="#FFFFFF"/><path d="M27.8,33.9h-7.7c-0.5,0-1,0.4-1,1s0.4,1,1,1h7.7c0.5,0,1-0.4,1-1S28.4,33.9,27.8,33.9z" fill="#FFFFFF"/><path d="M26.1,30.9c0.5,0,1-0.4,1-1s-0.4-1-1-1h-4.3c-0.5,0-1,0.4-1,1s0.4,1,1,1H26.1z" fill="#FFFFFF"/></g></g></svg>