<?xml version="1.0" ?><svg id="Layer_1" style="enable-background:new 0 0 65 65;" version="1.1" viewBox="0 0 65 65" xml:space="preserve" xmlns="http://www.w3.org/2000/svg" xmlns:xlink="http://www.w3.org/1999/xlink"><style type="text/css">
	.st0{fill:#FBD51A;}
	.st1{fill:#FFFFFF;}
	.st2{fill:#56E0C5;}
	.st3{fill:#DEBB7E;}
	.st4{fill:#7EAEF4;}
	.st5{fill:#FF9F0D;}
	.st6{fill:#C6DEAC;}
	.st7{fill:#76D6ED;}
	.st8{fill:#FF4055;}
	.st9{fill:#DE72F5;}
	.st10{fill:#BEE920;}
</style><g><circle class="st9" cx="32.5" cy="32.5" r="32"/><path class="st1" d="M46.1,49.1V13.3c0-1.6-1.1-3-2.6-3.3c-2.1-0.4-4,1.2-4,3.2v9.6h-7.3v-0.9h-0.6v-0.5h0c1.4,0,2.5-1.1,2.5-2.5   v-1c0-1.4-1.1-2.5-2.5-2.5H19.8c-1.4,0-2.5,1.1-2.5,2.5v1c0,1.4,1.1,2.5,2.5,2.5v0.5h-0.5v0.9h-1.7v2h1.7v1.1h0.5v2.6v2v11.5   c0,3,2.1,5.6,5.1,6c3.6,0.5,6.6-2.3,6.6-5.8V30.4v-2v-2.6h0.6v-1.1h7.3v24.3H14.8v6.8h35.6v-6.8H46.1z M29.5,28.4h-7.7v-2.6h1.5v-4   h-1.5v-0.5h7.7v0.5h-1.4v4h1.4V28.4z"/></g></svg>