<?xml version="1.0" ?><svg id="Layer_1" style="enable-background:new 0 0 97 97;" version="1.1" viewBox="0 0 97 97" xml:space="preserve" xmlns="http://www.w3.org/2000/svg" xmlns:xlink="http://www.w3.org/1999/xlink"><style type="text/css">
	.st0{fill:#82A1D3;}
	.st1{fill:#FFFFFF;}
	.st2{fill:#F16C6B;}
	.st3{fill:#FBCA60;}
	.st4{fill:#50BFE8;}
	.st5{fill:#68BD61;}
	.st6{fill:#B4AAD3;}
	.st7{fill:#69C3A3;}
	.st8{fill:none;stroke:#000000;stroke-width:4;stroke-linecap:round;stroke-linejoin:round;stroke-miterlimit:10;}
</style><g><circle class="st4" cx="48.5" cy="48.5" r="48"/><g><path class="st1" d="M62.6,50.7c-1.5-3.5-4.3-6.2-7.9-7.5V26.5c0-1.1-0.9-2-2-2h-8.5c-1.1,0-2,0.9-2,2v16.8    c-3.6,1.3-6.3,4-7.9,7.5H62.6z"/><path class="st1" d="M33.2,54.7c-0.1,0.9-0.2,1.9-0.2,2.9c0,7,4.8,13,11.6,14.8c0.2,0,0.3,0.1,0.5,0.1h6.8c0.2,0,0.3,0,0.5-0.1    C59.2,70.7,64,64.6,64,57.6c0-1-0.1-2-0.2-2.9H33.2z"/></g></g></svg>