<?xml version="1.0" ?><!DOCTYPE svg  PUBLIC '-//W3C//DTD SVG 1.1//EN'  'http://www.w3.org/Graphics/SVG/1.1/DTD/svg11.dtd'><svg enable-background="new 0 0 380 380" height="380px" id="Layer_1" version="1.1" viewBox="0 0 380 380" width="380px" xml:space="preserve" xmlns="http://www.w3.org/2000/svg" xmlns:xlink="http://www.w3.org/1999/xlink"><g><g><path d="M6076.006,3150.267h115.998v8h-115.998V3150.267L6076.006,3150.267z M6110.253,3088.123     c-2.175-2.484-1.923-6.263,0.562-8.438c2.484-2.174,6.263-1.923,8.438,0.562l16.271,18.547l45.498-40.653     c2.459-2.2,6.237-1.99,8.438,0.469c2.2,2.46,1.99,6.237-0.469,8.438l-49.842,44.535c-2.553,2.361-6.387,2.202-8.644-0.374     L6110.253,3088.123L6110.253,3088.123z M6134.014,3060.379c10.475-10.643,25.578-12.281,37.713-4.441     c-2.024,1.9-4.078,3.773-6.157,5.619c-10.026-5.205-21.213-2.217-28.413,7.275c-1.557,2.053-4.669,2.139-6.276,0.035     c-15.156-19.851-40.915-6.9-40.915,13.002c0,7.413,5.26,15.944,12.542,23.895c9.404,10.267,22.021,19.332,31.499,24.08     c9.477-4.748,22.093-13.813,31.498-24.08c5.055-5.52,9.135-11.318,11.158-16.83c3.139-2.643,6.238-5.336,9.286-8.084     c0.739,23.19-32.893,48.947-50.288,57.045c-1.092,0.51-2.297,0.472-3.311,0l0,0c-17.119-7.961-50.305-33.479-50.305-56.025     C6082.045,3055.699,6113.933,3039.85,6134.014,3060.379L6134.014,3060.379z M6076.006,3171.271h115.998v8h-115.998V3171.271     L6076.006,3171.271z" fill="#2B79C2"/><path d="M6054.949,2997.275h26.056v12h-26.056c-2.193,0-4.192,0.902-5.646,2.354     c-1.452,1.452-2.354,3.451-2.354,5.646v187.998c0,4.387,3.613,8,7.999,8h158.111c4.384,0,8-3.615,8-8v-187.998     c0-2.192-0.902-4.192-2.355-5.645c-1.453-1.453-3.452-2.355-5.645-2.355h-26.055v-12h26.055c5.506,0,10.507,2.249,14.129,5.871     c3.621,3.622,5.871,8.625,5.871,14.129v187.998c0,11.008-8.993,20-20,20h-158.111c-11.009,0-20-8.99-20-20v-187.998     c0-5.506,2.249-10.508,5.871-14.129C6044.442,2999.523,6049.443,2997.275,6054.949,2997.275L6054.949,2997.275z      M6134.006,2969.287c5.797,0,11.047,0.352,14.848,4.151c3.8,3.801,6.151,9.051,6.151,14.849l0,0h24.001v30h-90v-30h23.999l0,0     c0-5.798,2.351-11.048,6.151-14.849C6122.957,2969.639,6128.207,2969.287,6134.006,2969.287L6134.006,2969.287z      M6140.369,2981.923c-1.628-1.628-3.878-2.636-6.363-2.636c-2.486,0-4.737,1.008-6.365,2.636s-2.635,3.878-2.635,6.364     s1.007,4.736,2.635,6.364c1.525,1.526,3.6,2.507,5.901,2.624h0.926c2.302-0.117,4.376-1.098,5.901-2.624     c1.629-1.628,2.636-3.878,2.636-6.364S6141.998,2983.551,6140.369,2981.923L6140.369,2981.923z" fill="#3B4652"/></g><g><circle clip-rule="evenodd" cx="190" cy="190" fill="#55A47E" fill-rule="evenodd" r="190"/><g><path clip-rule="evenodd" d="M262.224,214.565c7.818,15.753,11.266,63.265,12.908,81.435      H104.868c1.646-18.177,5.186-65.674,13.008-81.435c1.127-2.28,4.664-4.406,9.373-6.391c0.75,17.601,6.422,35.942,14.545,49.717      c-5.248,7.518,1.078,17.818,10.24,16.374c5.725-0.901,9.637-6.274,8.734-12.002c-0.951-6.032-6.826-9.983-12.789-8.581      c-7.658-13.132-13.107-31.223-13.338-48.248c4.52-1.512,9.428-2.932,14.051-4.271c1.213-0.351,2.408-0.696,3.583-1.04      c1.182,3.675,2.542,7.646,4.069,11.704c8.26,21.945,16.096,31.181,29.369,47.097c1.098,1.314,2.571,2.003,4.282,2.001      c1.711-0.002,3.182-0.692,4.275-2.008c11.719-14.098,19.549-23.267,27.332-42.17c2.387-5.795,4.465-11.561,6.156-16.655      c1.171,0.338,2.359,0.677,3.566,1.019c5.105,1.452,10.58,3.01,15.502,4.697c-0.312,5.547-1.739,11.23-3.805,16.784      c-10.012-1.943-20.166,2.804-25.115,14.002c-6.707,15.18-25.512,37.858-5.43,45.216c4.621,1.692,7.191-5.327,2.572-7.019      c-4.545-1.664-4.568-5.501-2.812-10.293c2.533-6.918,9.07-17.095,12.512-24.883c8.164-18.471,33.798-9.042,28.105,10.308      c-2.434,8.272-4.022,20.234-6.524,27.063c-1.756,4.794-4.252,7.706-8.795,6.042c-4.621-1.693-7.191,5.326-2.572,7.018      c20.106,7.365,20.407-22.214,25.062-38.034c3.427-11.65-1.127-21.787-9.979-26.821c2.039-5.5,3.477-11.078,4.047-16.566      C258.15,210.453,261.165,212.426,262.224,214.565L262.224,214.565z M220.963,84.34c-12.007,10.689-30.986,12.954-46.759,6.897      c5.582,2.735,12.688,4.536,20.369,4.854c3.074,0.127,6.061,0.001,8.89-0.343c2.879-0.351,5.549-0.929,7.948-1.697      c1.557-0.499,3.227,0.358,3.727,1.916c0.5,1.558-0.357,3.228-1.916,3.727c-2.788,0.893-5.836,1.559-9.062,1.951      c-3.076,0.373-6.371,0.509-9.818,0.367c-9.74-0.404-18.715-2.989-25.344-6.838c-4.4-2.553-7.826-5.698-9.875-9.2      c-4.432,4.402-6.719,9.735-8.146,14.775c-0.098,1.193-0.15,2.398-0.15,3.617c0,14.571,5.283,35.081,13.102,47.319      c6.902,10.808,15.873,18.676,26.07,18.676c10.197,0,19.168-7.87,26.072-18.676C226.881,134.761,234.286,101.759,220.963,84.34      L220.963,84.34z M237.948,117.386c2.463-0.672,4.959-0.601,5.703,2.079c0.952,3.406,0.733,6.538-0.296,9.462      c-0.954,2.703-4.852,5.163-6.916,7.475c-0.957,1.07-3.102,1.511-4.42,1.296c-2.383,6.284-5.318,12.481-8.916,18.153      c-8.266,13.027-19.529,22.513-33.105,22.513c-13.574,0-24.84-9.484-33.104-22.513c-3.604-5.678-6.527-11.858-8.912-18.153      c-1.318,0.215-3.463-0.226-4.42-1.296c-2.064-2.312-5.963-4.771-6.916-7.475c-1.029-2.924-1.248-6.056-0.297-9.462      c0.596-2.151,2.324-2.62,4.256-2.376c-1.91-8.297-3.596-18.542-1.797-26.865c2.593-12.016,6.361-15.254,13.186-17.87      C158.811,60.046,171.418,52,188.67,52c17.252,0,33.646,5.298,43.879,25.707v0.001c0.686,0.519,1.396,1.007,2.15,1.459      C243.748,84.604,240.063,108.221,237.948,117.386L237.948,117.386z M219.877,184.974c15.181,5.89,46.2,10.371,53.079,24.295      c9.769,19.683,13.111,78.937,15.35,98.731H91.694c2.238-19.806,5.68-79.052,15.447-98.731      c6.695-13.547,37.621-18.298,53.082-24.295c3.105,11.137,9.879,33.159,19.648,48.189l4.436-26.205l-2.566-6.185l8.215-6.902      l8.215,6.902l-2.568,6.184l4.436,26.192C209.676,218.014,217.123,195.058,219.877,184.974L219.877,184.974z" fill="#FFFFFF" fill-rule="evenodd"/></g></g></g></svg>