<?xml version="1.0" ?><!DOCTYPE svg  PUBLIC '-//W3C//DTD SVG 1.1//EN'  'http://www.w3.org/Graphics/SVG/1.1/DTD/svg11.dtd'><svg height="6.82666in" style="shape-rendering:geometricPrecision; text-rendering:geometricPrecision; image-rendering:optimizeQuality; fill-rule:evenodd; clip-rule:evenodd" viewBox="0 0 6827 6827" width="6.82666in" xml:space="preserve" xmlns="http://www.w3.org/2000/svg" xmlns:xlink="http://www.w3.org/1999/xlink"><defs><style type="text/css">
   <![CDATA[
    .fil0 {fill:#388E3C}
    .fil1 {fill:#FFFFFE;fill-rule:nonzero}
   ]]>
  </style></defs><g id="Layer_x0020_1"><circle class="fil0" cx="3413" cy="3413" r="3413"/><g id="_269829432"><path class="fil1" d="M1871 3779l1553 0c34,0 62,28 62,62l0 335c0,34 -28,62 -62,62l-1553 0c-34,0 -62,-28 -62,-62l0 -335c0,-34 28,-62 62,-62zm1491 124l-1429 0 0 211 1429 0 0 -211z"/><path class="fil1" d="M4540 5413l-2059 0c-34,0 -62,-28 -62,-62l0 -170c0,-138 56,-263 147,-354 91,-91 216,-147 354,-147l1181 0c138,0 263,56 354,147 91,91 147,216 147,354l0 170c0,34 -28,62 -62,62zm-1997 -124l1935 0 0 -108c0,-104 -42,-198 -111,-266 -68,-68 -163,-111 -266,-111l-1181 0c-104,0 -198,42 -266,111 -68,68 -111,163 -111,266l0 108z"/><path class="fil1" d="M2506 4144c-20,-27 -59,-33 -86,-13 -27,20 -33,59 -13,86 137,184 313,331 512,432 200,101 422,155 652,155 400,0 762,-162 1024,-424 262,-262 424,-624 424,-1024 0,-400 -162,-762 -424,-1024 -262,-262 -624,-424 -1024,-424 -113,0 -226,13 -336,40 -110,26 -217,65 -318,117 -30,15 -43,53 -27,83 15,30 53,43 83,27 93,-47 191,-83 291,-107 100,-24 203,-36 308,-36 366,0 697,148 936,388 240,240 388,571 388,936 0,366 -148,697 -388,936 -240,240 -571,388 -936,388 -210,0 -414,-50 -596,-142 -182,-92 -344,-226 -468,-395z"/><path class="fil1" d="M3072 4127c-29,-18 -67,-10 -85,19 -18,29 -10,67 19,85 84,54 175,96 270,124 95,28 195,43 295,43 288,0 548,-117 737,-305 189,-189 305,-449 305,-737 0,-288 -117,-548 -305,-737 -189,-189 -449,-305 -737,-305 -127,0 -251,23 -368,67 -117,44 -226,109 -321,193 -26,23 -28,62 -6,87 23,26 62,28 87,6 84,-74 180,-131 282,-170 103,-39 212,-59 324,-59 253,0 483,103 649,269 166,166 269,396 269,649 0,253 -103,483 -269,649 -166,166 -396,269 -649,269 -89,0 -176,-13 -260,-37 -84,-25 -164,-61 -238,-109z"/><path class="fil1" d="M2377 1610l541 0c34,0 62,28 62,62l0 1478c0,34 -28,62 -62,62l-541 0c-34,0 -62,-28 -62,-62l0 -1478c0,-34 28,-62 62,-62zm479 124l-417 0 0 1354 417 0 0 -1354z"/><path class="fil1" d="M2512 3285c-34,0 -62,28 -62,62 0,34 28,62 62,62l270 0c34,0 62,-28 62,-62 0,-34 -28,-62 -62,-62l-270 0z"/><path class="fil1" d="M2414 1413c-31,0 -57,28 -57,62 0,34 25,62 57,62l467 0c31,0 57,-28 57,-62 0,-34 -25,-62 -57,-62l-467 0z"/></g></g></svg>