<svg xmlns="http://www.w3.org/2000/svg" width="13.125" height="22.105" viewBox="0 0 13.125 22.105">
  <g id="_1904669_call_chat_device_message_mobile_icon" data-name="1904669_call_chat_device_message_mobile_icon" transform="translate(-26)">
    <path id="Path_1" data-name="Path 1" d="M37.225,0H27.9A1.9,1.9,0,0,0,26,1.9V20.206a1.9,1.9,0,0,0,1.9,1.9h9.326a1.9,1.9,0,0,0,1.9-1.9V1.9A1.9,1.9,0,0,0,37.225,0ZM27.036,3.919H38.089V17.2H27.036ZM27.9,1.036h9.326a.863.863,0,0,1,.863.863v.983H27.036V1.9A.863.863,0,0,1,27.9,1.036Zm9.326,20.033H27.9a.863.863,0,0,1-.863-.863V18.233H38.089v1.972A.863.863,0,0,1,37.225,21.069Z" fill="#62aad9"/>
    <circle id="Ellipse_1" data-name="Ellipse 1" cx="1.036" cy="1.036" r="1.036" transform="translate(31.526 18.636)" fill="#62aad9"/>
    <path id="Path_2" data-name="Path 2" d="M53.648,9.256h2.72a.518.518,0,0,0,0-1.036h-2.72a.518.518,0,1,0,0,1.036Z" transform="translate(-22.445 -6.8)" fill="#62aad9"/>
  </g>
</svg>
