<?xml version="1.0" ?><svg id="Layer_1" style="enable-background:new 0 0 65 65;" version="1.1" viewBox="0 0 65 65" xml:space="preserve" xmlns="http://www.w3.org/2000/svg" xmlns:xlink="http://www.w3.org/1999/xlink"><style type="text/css">
	.st0{fill:#FBD51A;}
	.st1{fill:#FFFFFF;}
	.st2{fill:#56E0C5;}
	.st3{fill:#DEBB7E;}
	.st4{fill:#7EAEF4;}
	.st5{fill:#FF9F0D;}
	.st6{fill:#C6DEAC;}
	.st7{fill:#76D6ED;}
	.st8{fill:#FF4055;}
	.st9{fill:#DE72F5;}
	.st10{fill:#BEE920;}
</style><g><circle class="st8" cx="32.5" cy="32.5" r="32"/><path class="st1" d="M54.5,26.3v-2h-3c-0.1-1.5-0.5-2.8-1.1-4.1l2.6-1.5l-1-1.7l-2.6,1.5c-0.8-1.1-1.7-2-2.8-2.8l1.5-2.6l-1.7-1   l-1.5,2.6c-1.3-0.6-2.7-1-4.1-1.1v-3h-2v3c-1.5,0.1-2.9,0.5-4.1,1.1L33.1,12l-1.7,1l1.5,2.6c-1.1,0.8-2,1.7-2.8,2.8l-2.6-1.5   l-1,1.7l2.6,1.5c-0.7,1.6-1.2,3.3-1.2,5.1c0,0,0,0.1,0,0.1c0,0-0.1,0-0.1,0V22h-2v3.4c-1.7,0.1-3.2,0.6-4.6,1.3l-1.7-2.9l-1.7,1   l1.7,2.9c-1.2,0.9-2.3,2-3.2,3.2l-2.9-1.7l-1,1.7l2.9,1.7c-0.7,1.4-1.1,3-1.3,4.7h-3.4v2h3.4c0.1,1.7,0.6,3.2,1.3,4.7l-2.9,1.7   l1,1.7l2.9-1.7c0.9,1.2,2,2.3,3.2,3.2l-1.7,2.9l1.7,1l1.7-2.9c1.4,0.7,3,1.1,4.6,1.3v3.4h2v-3.4c1.7-0.1,3.2-0.6,4.7-1.3l1.7,2.9   l1.7-1l-1.7-2.9c1.2-0.9,2.3-2,3.2-3.2l2.9,1.7l1-1.7l-2.9-1.7c0.7-1.4,1.1-3,1.3-4.7H43v-2h-3.4c0,0,0-0.1,0-0.1c0,0,0.1,0,0.1,0   c1.8,0,3.6-0.4,5.1-1.2l1.5,2.6l1.7-1L46.5,35c1.1-0.8,2-1.7,2.8-2.8l2.6,1.5l1-1.7l-2.6-1.5c0.6-1.3,1-2.6,1.1-4.1H54.5z    M26.7,49.2c-6,0-10.9-4.9-10.9-10.9c0-6,4.9-10.9,10.9-10.9c0.7,0,1.3,0.1,2,0.2c0.8,0.2,1.6,0.4,2.4,0.7c3,1.3,5.3,4,6.2,7.2   c0.1,0.3,0.1,0.5,0.2,0.8c0.1,0.7,0.2,1.3,0.2,2C37.6,44.3,32.8,49.2,26.7,49.2z M37.6,30.6c0-0.5,0.7-0.9,1.3-1.1l0.3-0.1   c0.9-0.3,2-0.8,2.7-1.8c0.1-0.2,0.2-0.4,0.3-0.6c0.1-0.2,0.2-0.4,0.2-0.4c0.1,0,0.2-0.1,0.4-0.1c0.3,0,0.7,0.1,0.9,0.2   c0.4,0.2,0.6,1.3,0.4,2c-0.2,0.9-0.8,1.8-1.7,2.3c-1.1,0.6-2.3,0.7-3.1,0.6c-0.6,0-1-0.2-1.3-0.4C37.7,31.1,37.5,30.9,37.6,30.6z    M39.7,35.2c-0.2,0-0.3,0-0.4,0c0,0,0-0.1,0-0.1c0-0.1-0.1-0.2-0.1-0.4c-0.1-0.2-0.1-0.4-0.2-0.5c0-0.1-0.1-0.2-0.1-0.4   c0,0,0-0.1,0-0.1c0.1,0,0.3,0,0.4,0.1c0.2,0,0.5,0,0.7,0c1.3,0,2.6-0.3,3.6-0.9c1.4-0.8,2.4-2.2,2.7-3.7c0.2-1.1,0-3.1-1.3-4   c-0.9-0.6-2.8-0.9-3.8,0c-0.4,0.3-0.6,0.8-0.7,1.1c-0.1,0.1-0.1,0.2-0.2,0.3c-0.3,0.5-1,0.7-1.7,1l-0.4,0.1c-1,0.4-1.8,1-2.2,1.6   c-0.3-0.3-0.5-0.5-0.8-0.7c-0.1-0.1-0.1-0.1-0.2-0.2c-0.2-0.1-0.3-0.3-0.5-0.4c-0.1-0.1-0.2-0.1-0.3-0.2c-0.2-0.1-0.3-0.2-0.5-0.3   c-0.1-0.1-0.2-0.1-0.3-0.2c-0.2-0.1-0.3-0.2-0.5-0.3c-0.1-0.1-0.2-0.1-0.3-0.2c-0.2-0.1-0.3-0.2-0.5-0.2c-0.1-0.1-0.2-0.1-0.3-0.2   c-0.2-0.1-0.4-0.1-0.5-0.2c-0.1,0-0.2-0.1-0.3-0.1c-0.2-0.1-0.4-0.1-0.6-0.2c-0.1,0-0.2-0.1-0.3-0.1c0,0-0.1,0-0.1,0   c0-0.1,0-0.3,0-0.4c0-5.4,4.4-9.8,9.9-9.8s9.8,4.4,9.8,9.8C49.5,30.7,45.1,35.2,39.7,35.2z"/><path class="st1" d="M41.7,17.9c-1-0.8-2.4-1.1-3.9-0.8c-1.8,0.3-3.4,1.4-4.2,2.9c-0.7,1.2-0.9,2.6-0.5,4c0.2,0.7,0.5,1.4,0.9,1.8   c0.6,0.7,1.6,1,2.8,1c0,0,0.1,0,0.1,0c0.3,0,0.8,0,1.2-0.2c1.3-0.6,1.4-2.3,1.4-2.9c0-1,0.2-1.1,0.3-1.2c0.1,0,0.4,0,0.6,0   c0.5,0,1,0,1.6-0.3c0.8-0.4,1.2-1.4,1-2.4C42.8,19.1,42.3,18.4,41.7,17.9z M40.9,20.4c-0.1,0-0.4,0-0.5,0c-0.4,0-0.9,0-1.5,0.2   c-1.3,0.6-1.4,2.3-1.4,2.9c0,1-0.2,1.1-0.3,1.2c0,0-0.1,0-0.3,0c-0.6,0-1.1-0.1-1.4-0.4c-0.2-0.2-0.3-0.5-0.4-0.9   c-0.2-0.9-0.1-1.8,0.3-2.5c0.5-0.9,1.6-1.7,2.8-1.9c0.2,0,0.4-0.1,0.7-0.1c0.5,0,1.1,0.1,1.6,0.5c0.3,0.2,0.4,0.4,0.5,0.6   C41,20.3,40.9,20.4,40.9,20.4z"/><path class="st1" d="M23.6,39.8c0.4,0,0.8,0,1.3-0.3c1.4-0.7,1.5-2.4,1.5-3.1c0-1.1,0.2-1.3,0.4-1.4c0.1-0.1,0.4-0.1,0.7,0   c0.5,0,1.1,0,1.7-0.3c0.8-0.5,1.3-1.5,1.1-2.5c-0.1-0.7-0.6-1.4-1.3-2c-1.1-0.9-2.6-1.2-4.2-0.9c-1.9,0.4-3.6,1.6-4.5,3.1   c-0.7,1.2-0.9,2.8-0.6,4.3c0.2,0.8,0.5,1.5,1,1.9C21.4,39.6,22.6,39.8,23.6,39.8C23.6,39.8,23.6,39.8,23.6,39.8z M21.5,36.3   c-0.2-1-0.1-2,0.4-2.8c0.6-1,1.8-1.9,3.2-2.1c0.6-0.1,1.7-0.2,2.6,0.5c0.3,0.2,0.5,0.5,0.5,0.7c0,0.2,0,0.3-0.1,0.4   c-0.1,0.1-0.4,0-0.6,0c-0.5,0-1,0-1.6,0.2c-1.4,0.7-1.5,2.4-1.5,3.1c0,1.1-0.2,1.3-0.4,1.4c-0.1,0.1-0.3,0.1-0.4,0.1   c-0.4,0-1.2,0-1.6-0.5C21.8,37.1,21.6,36.7,21.5,36.3z"/><path class="st1" d="M32.4,38.1c-0.9-0.6-3-1-4.1,0c-0.4,0.4-0.6,0.8-0.8,1.2c-0.1,0.1-0.1,0.3-0.2,0.4c-0.3,0.5-1.1,0.8-1.9,1.1   l-0.4,0.1c-1.7,0.7-2.7,1.8-2.8,3.1c0,1,0.5,2,1.4,2.6c0.6,0.4,1.4,0.7,2.4,0.7c0.3,0,0.5,0,0.8,0c1.4,0,2.8-0.3,3.9-1   c1.5-0.9,2.6-2.4,2.9-4C33.9,41.2,33.7,39,32.4,38.1z M31.8,42.1c-0.2,1-0.9,2-1.9,2.6c-1.2,0.7-2.6,0.8-3.5,0.7   c-0.7-0.1-1.2-0.2-1.5-0.4c-0.3-0.2-0.5-0.6-0.5-0.8c0-0.5,0.8-1,1.5-1.3l0.4-0.1c1-0.4,2.2-0.8,2.9-1.9c0.1-0.2,0.2-0.4,0.3-0.6   c0.1-0.2,0.2-0.4,0.3-0.5c0.1-0.1,0.3-0.1,0.5-0.1c0.4,0,0.8,0.1,1.1,0.2C31.7,40.1,31.9,41.2,31.8,42.1z"/></g></svg>