<?xml version="1.0" ?><!DOCTYPE svg  PUBLIC '-//W3C//DTD SVG 1.1//EN'  'http://www.w3.org/Graphics/SVG/1.1/DTD/svg11.dtd'><svg enable-background="new 0 0 380 380" height="380px" id="Layer_1" version="1.1" viewBox="0 0 380 380" width="380px" xml:space="preserve" xmlns="http://www.w3.org/2000/svg" xmlns:xlink="http://www.w3.org/1999/xlink"><g><g><path d="M6076.006,3150.267h115.998v8h-115.998V3150.267L6076.006,3150.267z M6110.253,3088.123     c-2.175-2.484-1.923-6.263,0.562-8.438c2.484-2.174,6.263-1.923,8.438,0.562l16.271,18.547l45.498-40.653     c2.459-2.2,6.237-1.99,8.438,0.469c2.2,2.46,1.99,6.237-0.469,8.438l-49.842,44.535c-2.553,2.361-6.387,2.202-8.644-0.374     L6110.253,3088.123L6110.253,3088.123z M6134.014,3060.379c10.475-10.643,25.578-12.281,37.713-4.441     c-2.024,1.9-4.078,3.773-6.157,5.619c-10.026-5.205-21.213-2.217-28.413,7.275c-1.557,2.053-4.669,2.139-6.276,0.035     c-15.156-19.851-40.915-6.9-40.915,13.002c0,7.413,5.26,15.944,12.542,23.895c9.404,10.267,22.021,19.332,31.499,24.08     c9.477-4.748,22.093-13.813,31.498-24.08c5.055-5.52,9.135-11.318,11.158-16.83c3.139-2.643,6.238-5.336,9.286-8.084     c0.739,23.19-32.893,48.947-50.288,57.045c-1.092,0.51-2.297,0.472-3.311,0l0,0c-17.119-7.961-50.305-33.479-50.305-56.025     C6082.045,3055.699,6113.933,3039.85,6134.014,3060.379L6134.014,3060.379z M6076.006,3171.271h115.998v8h-115.998V3171.271     L6076.006,3171.271z" fill="#2B79C2"/><path d="M6054.949,2997.275h26.056v12h-26.056c-2.193,0-4.192,0.902-5.646,2.354     c-1.452,1.452-2.354,3.451-2.354,5.646v187.998c0,4.387,3.613,8,7.999,8h158.111c4.384,0,8-3.615,8-8v-187.998     c0-2.192-0.902-4.192-2.355-5.645c-1.453-1.453-3.452-2.355-5.645-2.355h-26.055v-12h26.055c5.506,0,10.507,2.249,14.129,5.871     c3.621,3.622,5.871,8.625,5.871,14.129v187.998c0,11.008-8.993,20-20,20h-158.111c-11.009,0-20-8.99-20-20v-187.998     c0-5.506,2.249-10.508,5.871-14.129C6044.442,2999.523,6049.443,2997.275,6054.949,2997.275L6054.949,2997.275z      M6134.006,2969.287c5.797,0,11.047,0.352,14.848,4.151c3.8,3.801,6.151,9.051,6.151,14.849l0,0h24.001v30h-90v-30h23.999l0,0     c0-5.798,2.351-11.048,6.151-14.849C6122.957,2969.639,6128.207,2969.287,6134.006,2969.287L6134.006,2969.287z      M6140.369,2981.923c-1.628-1.628-3.878-2.636-6.363-2.636c-2.486,0-4.737,1.008-6.365,2.636s-2.635,3.878-2.635,6.364     s1.007,4.736,2.635,6.364c1.525,1.526,3.6,2.507,5.901,2.624h0.926c2.302-0.117,4.376-1.098,5.901-2.624     c1.629-1.628,2.636-3.878,2.636-6.364S6141.998,2983.551,6140.369,2981.923L6140.369,2981.923z" fill="#3B4652"/></g><g><circle clip-rule="evenodd" cx="190" cy="190" fill="#3678A3" fill-rule="evenodd" r="190"/><g><path d="M201.997,94.687c-0.031,1.057-0.062,1.917-0.088,2.386c-1.145,20.866-10.939,33.375-23.523,42.888      c-4.066-2.524-8.258-4.889-12.421-7.236c-0.956-0.54-1.903-1.075-2.841-1.607c10.398-6.899,19.164-15.285,21.974-28.323h-42.78      c-2.209,0-4-1.791-4-4s1.791-4,4-4h43.717c0.042-1.097,0.082-2.457,0.106-3.693v-0.049c0.016-0.806,0.027-1.59,0.031-2.264      C191.738,90.11,197.044,92.106,201.997,94.687L201.997,94.687z M146.693,159.296c-5.933,3.674-11.329,7.632-15.37,12.457h34.928      c2.209,0,4,1.791,4,4s-1.791,4-4,4h-39.885c-1.514,3.576-2.366,7.586-2.366,12.166c0,4.436,0.8,8.337,2.225,11.828h40.704      c2.209,0,4,1.791,4,4s-1.791,4-4,4h-35.885c0.697,0.854,1.438,1.681,2.217,2.483c-10.683-6.773-19.373-16.4-25.006-27.81      c1.642-17.332,11.096-27.811,23.189-36.249c2.924,1.932,5.93,3.759,8.971,5.534C142.496,156.92,144.594,158.11,146.693,159.296      L146.693,159.296z M187.06,251.445c9.336,9.655,15.546,22.425,14.902,41.639l-15.938-0.501      c0.264-7.849-1.189-14.328-3.838-19.83h-37.976c-2.209,0-4-1.791-4-4c0-2.209,1.791-4,4-4h32.82      c-3.884-4.708-8.745-8.6-14.021-12.1c2.36,0.172,4.744,0.263,7.15,0.263C175.925,252.916,181.571,252.41,187.06,251.445      L187.06,251.445z" fill="#FFFFFF"/><path d="M125.188,103.583c0.625,2.579,1.479,4.973,2.53,7.207h37.721c2.209,0,4,1.791,4,4c0,2.209-1.791,4-4,4      h-32.667c7.148,8.82,17.721,14.786,28.091,20.636c20.924,11.805,41.182,23.233,41.182,52.493c0,12.619-3.77,21.92-9.735,29.366      c-6.952,2.354-14.401,3.631-22.149,3.631c-2.317,0-4.608-0.116-6.866-0.339c11.516-7.125,21.03-15.312,22.541-28.827h-42.706      c-2.21,0-4-1.791-4-4s1.79-4,4-4h42.665c-2.1-17.157-17.19-25.675-32.743-34.448c-16.005-9.029-32.402-18.282-40.254-35.745      C116.282,112.354,120.456,107.653,125.188,103.583L125.188,103.583z M243.698,249.255c-5.467-5.467-5.467-14.33,0-19.797      c5.467-5.467,14.33-5.467,19.798,0l39.243,39.244c5.468,5.467,5.468,14.33,0,19.796c-5.466,5.468-14.329,5.468-19.796,0      L243.698,249.255L243.698,249.255z M239.669,216.515L239.669,216.515c1.562-1.562,4.097-1.562,5.658,0      c1.562,1.562,1.562,4.094,0,5.656l-8.916,8.916c-1.562,1.561-4.093,1.561-5.655,0c-1.562-1.562-1.562-4.096,0-5.656      L239.669,216.515L239.669,216.515z M170.16,78.916c-42.529,0-77,34.471-77,77s34.471,77,77,77s77-34.471,77-77      S212.689,78.916,170.16,78.916L170.16,78.916z M170.16,66.916c49.153,0,89,39.847,89,89s-39.847,89-89,89      c-49.153,0-89-39.847-89-89S121.007,66.916,170.16,66.916L170.16,66.916z M149.925,250.796      c-11.246,7.018-21.139,15.393-24.61,28.957h40.537c2.21,0,4.001,1.791,4.001,4c0,2.209-1.791,4-4.001,4h-41.771      c-0.096,1.55-0.116,3.159-0.061,4.83l-15.938,0.501c-0.809-24.149,9.209-38.12,22.655-48.521      C136.829,247.276,143.249,249.379,149.925,250.796L149.925,250.796z" fill="#FFFFFF"/></g></g></g></svg>