<?xml version="1.0" ?><svg baseProfile="tiny" id="Layer_1" version="1.2" viewBox="0 0 512 512" xml:space="preserve" xmlns="http://www.w3.org/2000/svg" xmlns:xlink="http://www.w3.org/1999/xlink"><g id="XMLID_1346_"><circle cx="256" cy="256" fill="#00AEBB" id="XMLID_4405_" r="256"/><g id="XMLID_2469_"><circle cx="257.9" cy="255.4" fill="#FFFFFF" id="XMLID_2497_" r="27.9"/><circle cx="376.4" cy="171.5" fill="#FFFFFF" id="XMLID_2496_" r="12.4"/><circle cx="333.6" cy="373.2" fill="#FFFFFF" id="XMLID_2495_" r="12.4"/><path d="M416,256c0-18-14.7-34.7-41.5-47.5c2.7-7.8,4.6-15.1,5.6-21.8c-1.2,0.3-2.4,0.5-3.7,0.5    c-1.6,0-3.2-0.2-4.6-0.7c-0.9,5.8-2.5,12.1-4.8,18.7c-12.9-5.4-27.6-9.6-43.5-12.7c-3.1-15.9-7.4-30.6-12.7-43.5    c11-3.8,21-5.8,29.6-5.8c10.3,0,18.6,2.8,24.1,8.3c1.8,1.8,3.3,3.9,4.6,6.3c2.2-1.2,4.8-1.9,7.4-1.9c0.3,0,0.6,0,0.8,0    c-1.7-3.9-4.1-7.4-7-10.3c-12.7-12.7-34.9-14.2-62.9-4.3c-12.8-26.8-29.5-41.4-47.5-41.4c-7.5,0-14.7,2.5-21.6,7.4    c2.4,1.5,4.4,3.6,5.7,6.2c5.2-3.5,10.6-5.4,15.9-5.4c14.3,0,28.6,13.1,39.8,36.2c-12.9,5.3-26.3,12.7-39.8,21.7    c-13.4-9-26.8-16.4-39.8-21.7c1.5-3.2,3.2-6.2,4.8-9c-2.7-0.9-5-2.6-6.8-4.7c-2,3.3-3.9,6.9-5.7,10.7c-28-9.9-50.2-8.5-62.9,4.3    c-12.7,12.7-14.2,34.9-4.3,62.9c-14.9,7.1-26,15.4-32.9,24.4c2.8,0.7,5.3,2.2,7.3,4.2c6.1-7.6,15.9-14.7,28.7-20.9    c5.3,12.9,12.7,26.3,21.7,39.8c-9,13.4-16.4,26.8-21.7,39.8c-19.3-9.3-31.7-20.9-35.1-32.8c-1.5,0.5-3,0.7-4.7,0.7    c-1.3,0-2.6-0.2-3.8-0.5c3.4,15.2,17.5,29.2,40.7,40.3c-9.9,28-8.5,50.2,4.3,62.9c7.2,7.2,17.3,10.8,29.9,10.8    c9.7,0,20.8-2.2,33-6.5c12.8,26.8,29.5,41.5,47.5,41.5c18,0,34.7-14.7,47.5-41.5c3.6,1.3,7.2,2.4,10.6,3.3c0-0.2,0-0.5,0-0.7    c0-2.7,0.7-5.2,1.8-7.4c-2.9-0.8-6-1.7-9.1-2.8c5.4-12.9,9.6-27.6,12.7-43.5c15.9-3.1,30.6-7.4,43.5-12.7    c8.4,24.2,7.6,43.6-2.5,53.7c-4,4-9.5,6.6-16.1,7.7c0.5,1.6,0.8,3.3,0.8,5c0,1.1-0.1,2.2-0.4,3.3c8.7-1.3,16-4.7,21.5-10.2    c12.7-12.7,14.2-34.9,4.3-62.9C401.3,290.7,416,274,416,256z M319,217.2c-3.2-3.5-6.5-6.9-9.9-10.3c-3.4-3.4-6.9-6.7-10.3-9.9    c6,0.7,12,1.5,17.7,2.5C317.4,205.2,318.3,211.2,319,217.2z M303,151.9c4.8,11.6,8.8,24.8,11.7,39c-8.6-1.4-17.5-2.5-26.6-3.2    c-6.9-5.9-14-11.4-21-16.5C279.3,163.2,291.4,156.7,303,151.9z M274.2,186.8c-4.7-0.2-9.5-0.3-14.3-0.3c-4.8,0-9.6,0.1-14.3,0.3    c4.8-3.8,9.5-7.4,14.3-10.7C264.7,179.4,269.5,183,274.2,186.8z M216.8,151.9c11.6,4.8,23.7,11.3,35.9,19.3    c-7.1,5.1-14.1,10.6-21,16.5c-9.1,0.7-18,1.8-26.6,3.2C208,176.6,211.9,163.5,216.8,151.9z M221.1,196.9    c-3.5,3.2-6.9,6.5-10.3,9.9c-3.4,3.4-6.7,6.9-9.9,10.3c0.7-6,1.5-12,2.5-17.7C209.2,198.5,215.1,197.6,221.1,196.9z M155.4,151.5    c5.5-5.5,13.8-8.3,24.1-8.3c8.6,0,18.6,1.9,29.6,5.8c-5.4,12.9-9.6,27.6-12.7,43.5c-15.9,3.1-30.6,7.4-43.5,12.7    C144.4,180.9,145.2,161.6,155.4,151.5z M155.8,212.9c11.6-4.8,24.8-8.8,39-11.7c-1.4,8.6-2.5,17.5-3.2,26.6    c-5.9,6.9-11.4,14-16.5,21C167.1,236.6,160.6,224.5,155.8,212.9z M190.7,270.3c-3.8-4.8-7.4-9.5-10.7-14.3    c3.4-4.8,7-9.6,10.7-14.3c-0.2,4.7-0.3,9.5-0.3,14.3S190.5,265.6,190.7,270.3z M175,263.3c5.1,7.1,10.6,14.1,16.5,21    c0.7,9.1,1.8,18,3.2,26.6c-14.2-3-27.4-6.9-39-11.7C160.6,287.5,167.1,275.4,175,263.3z M155.4,360.5c-10.1-10.1-11-29.5-2.5-53.7    c12.9,5.4,27.6,9.6,43.5,12.7c3.1,15.9,7.4,30.6,12.7,43.5C184.9,371.5,165.5,370.7,155.4,360.5z M200.8,294.8    c3.2,3.5,6.5,6.9,9.9,10.3c3.4,3.4,6.9,6.7,10.3,9.9c-6-0.7-12-1.5-17.7-2.5C202.4,306.8,201.5,300.8,200.8,294.8z M205,321.2    c8.6,1.4,17.5,2.5,26.6,3.2c6.9,5.9,14,11.4,21,16.5c-12.1,8-24.2,14.5-35.9,19.3C211.9,348.5,208,335.4,205,321.2z M245.6,325.2    c4.7,0.2,9.5,0.3,14.3,0.3c4.8,0,9.6-0.1,14.3-0.3c-4.8,3.8-9.5,7.4-14.3,10.7C255.1,332.6,250.3,329,245.6,325.2z M259.9,403.8    c-14.3,0-28.6-13.1-39.8-36.2c12.9-5.3,26.3-12.7,39.8-21.7c13.4,9,26.8,16.4,39.8,21.7C288.5,390.7,274.2,403.8,259.9,403.8z     M303,360.1c-11.6-4.8-23.7-11.3-35.9-19.3c7.1-5.1,14.1-10.6,21-16.5c9.1-0.7,18-1.8,26.6-3.2C311.8,335.4,307.9,348.5,303,360.1    z M316.4,312.5c-5.8,1-11.7,1.9-17.7,2.5c3.5-3.2,6.9-6.5,10.3-9.9c3.4-3.4,6.7-6.9,9.9-10.3C318.3,300.8,317.4,306.8,316.4,312.5    z M320.3,281c-5.4,6.2-11.1,12.3-17,18.3s-12.1,11.7-18.3,17c-8.2,0.6-16.5,0.9-25,0.9c-8.5,0-16.8-0.3-25-0.9    c-6.2-5.4-12.3-11.1-18.3-17s-11.7-12.1-17-18.3c-0.6-8.2-0.9-16.5-0.9-25c0-8.5,0.3-16.8,0.9-25c5.4-6.2,11.1-12.3,17-18.3    s12.1-11.7,18.3-17c8.2-0.6,16.5-0.9,25-0.9c8.5,0,16.8,0.3,25,0.9c6.2,5.4,12.3,11.1,18.3,17s11.7,12.1,17,18.3    c0.6,8.2,0.9,16.5,0.9,25C321.1,264.5,320.8,272.8,320.3,281z M364,212.9c-4.8,11.6-11.3,23.7-19.3,35.9    c-5.1-7.1-10.6-14.1-16.5-21c-0.7-9.1-1.8-18-3.2-26.6C339.3,204.1,352.4,208,364,212.9z M329.1,241.7c3.8,4.8,7.4,9.5,10.7,14.3    c-3.4,4.8-7,9.6-10.7,14.3c0.2-4.7,0.3-9.5,0.3-14.3S329.3,246.4,329.1,241.7z M325.1,310.9c1.4-8.6,2.5-17.5,3.2-26.6    c5.9-6.9,11.4-14,16.5-21c8,12.1,14.5,24.2,19.3,35.9C352.4,304,339.3,307.9,325.1,310.9z M371.6,295.8    c-5.3-12.9-12.7-26.3-21.7-39.8c9-13.4,16.4-26.8,21.7-39.8c23.1,11.2,36.2,25.4,36.2,39.8C407.8,270.3,394.7,284.6,371.6,295.8z" fill="#FFFFFF" id="XMLID_2472_"/><circle cx="108.4" cy="248.1" fill="#FFFFFF" id="XMLID_2471_" r="12.4"/><circle cx="230.1" cy="120.6" fill="#FFFFFF" id="XMLID_2470_" r="12.4"/></g></g></svg>