<?xml version="1.0" ?><!DOCTYPE svg  PUBLIC '-//W3C//DTD SVG 1.1//EN'  'http://www.w3.org/Graphics/SVG/1.1/DTD/svg11.dtd'><svg enable-background="new 0 0 380 380" height="380px" id="Layer_1" version="1.1" viewBox="0 0 380 380" width="380px" xml:space="preserve" xmlns="http://www.w3.org/2000/svg" xmlns:xlink="http://www.w3.org/1999/xlink"><g><g><path d="M6076.006,3150.267h115.998v8h-115.998V3150.267L6076.006,3150.267z M6110.253,3088.123     c-2.175-2.484-1.923-6.263,0.562-8.438c2.484-2.174,6.263-1.923,8.438,0.562l16.271,18.547l45.498-40.653     c2.459-2.2,6.237-1.99,8.438,0.469c2.2,2.46,1.99,6.237-0.469,8.438l-49.842,44.535c-2.553,2.361-6.387,2.202-8.644-0.374     L6110.253,3088.123L6110.253,3088.123z M6134.014,3060.379c10.475-10.643,25.578-12.281,37.713-4.441     c-2.024,1.9-4.078,3.773-6.157,5.619c-10.026-5.205-21.213-2.217-28.413,7.275c-1.557,2.053-4.669,2.139-6.276,0.035     c-15.156-19.851-40.915-6.9-40.915,13.002c0,7.413,5.26,15.944,12.542,23.895c9.404,10.267,22.021,19.332,31.499,24.08     c9.477-4.748,22.093-13.813,31.498-24.08c5.055-5.52,9.135-11.318,11.158-16.83c3.139-2.643,6.238-5.336,9.286-8.084     c0.739,23.19-32.893,48.947-50.288,57.045c-1.092,0.51-2.297,0.472-3.311,0l0,0c-17.119-7.961-50.305-33.479-50.305-56.025     C6082.045,3055.699,6113.933,3039.85,6134.014,3060.379L6134.014,3060.379z M6076.006,3171.271h115.998v8h-115.998V3171.271     L6076.006,3171.271z" fill="#2B79C2"/><path d="M6054.949,2997.275h26.056v12h-26.056c-2.193,0-4.192,0.902-5.646,2.354     c-1.452,1.452-2.354,3.451-2.354,5.646v187.998c0,4.387,3.613,8,7.999,8h158.111c4.384,0,8-3.615,8-8v-187.998     c0-2.192-0.902-4.192-2.355-5.645c-1.453-1.453-3.452-2.355-5.645-2.355h-26.055v-12h26.055c5.506,0,10.507,2.249,14.129,5.871     c3.621,3.622,5.871,8.625,5.871,14.129v187.998c0,11.008-8.993,20-20,20h-158.111c-11.009,0-20-8.99-20-20v-187.998     c0-5.506,2.249-10.508,5.871-14.129C6044.442,2999.523,6049.443,2997.275,6054.949,2997.275L6054.949,2997.275z      M6134.006,2969.287c5.797,0,11.047,0.352,14.848,4.151c3.8,3.801,6.151,9.051,6.151,14.849l0,0h24.001v30h-90v-30h23.999l0,0     c0-5.798,2.351-11.048,6.151-14.849C6122.957,2969.639,6128.207,2969.287,6134.006,2969.287L6134.006,2969.287z      M6140.369,2981.923c-1.628-1.628-3.878-2.636-6.363-2.636c-2.486,0-4.737,1.008-6.365,2.636s-2.635,3.878-2.635,6.364     s1.007,4.736,2.635,6.364c1.525,1.526,3.6,2.507,5.901,2.624h0.926c2.302-0.117,4.376-1.098,5.901-2.624     c1.629-1.628,2.636-3.878,2.636-6.364S6141.998,2983.551,6140.369,2981.923L6140.369,2981.923z" fill="#3B4652"/></g><g><circle clip-rule="evenodd" cx="190" cy="190" fill="#C9494F" fill-rule="evenodd" r="190"/><g><path clip-rule="evenodd" d="M156.972,130c11.104,0,20.105-9,20.105-20.105      c0-10.809-15.452-29.012-20.105-35.895c-4.655,6.885-20.105,25.086-20.105,35.895C136.867,121,145.869,130,156.972,130      L156.972,130z M132.138,251.428c0-3.312,2.686-6,6-6c3.314,0,6,2.688,6,6c0,8.811,3.658,16.781,9.574,22.545      c5.961,5.809,14.22,9.402,23.365,9.402c3.313,0,6,2.685,6,6c0,3.312-2.687,6-6,6c-12.367,0-23.578-4.9-31.708-12.824      C137.194,274.584,132.138,263.582,132.138,251.428L132.138,251.428z M177.077,154.002      c-12.747,18.369-55.999,68.049-55.999,97.428c0,30.139,25.072,54.57,55.999,54.57c30.928,0,56-24.432,56-54.57      C233.077,222.051,189.826,172.375,177.077,154.002L177.077,154.002z M226.922,170c-17.673,0-32-14.145-32-31.594      c0-16.996,24.653-45.678,32-56.404c7.35,10.73,32,39.406,32,56.404C258.922,155.855,244.596,170,226.922,170L226.922,170z" fill="#FFFFFF" fill-rule="evenodd"/></g></g></g></svg>