<?xml version="1.0" ?><svg id="Layer_1" style="enable-background:new 0 0 65 65;" version="1.1" viewBox="0 0 65 65" xml:space="preserve" xmlns="http://www.w3.org/2000/svg" xmlns:xlink="http://www.w3.org/1999/xlink"><style type="text/css">
	.st0{fill:#FBD51A;}
	.st1{fill:#FFFFFF;}
	.st2{fill:#56E0C5;}
	.st3{fill:#DEBB7E;}
	.st4{fill:#7EAEF4;}
	.st5{fill:#FF9F0D;}
	.st6{fill:#C6DEAC;}
	.st7{fill:#76D6ED;}
	.st8{fill:#FF4055;}
	.st9{fill:#DE72F5;}
	.st10{fill:#BEE920;}
</style><g><circle class="st0" cx="32.5" cy="32.5" r="32"/><path class="st1" d="M12.9,33c1.8,0,3.4-1.1,4.1-2.7l8.1,1.1c0.2,1.3,0.8,2.5,1.7,3.5l-6.5,9.9c-0.4-0.1-0.9-0.2-1.3-0.2   c-2.5,0-4.5,2-4.5,4.5s2,4.5,4.5,4.5s4.5-2,4.5-4.5c0-1.3-0.5-2.4-1.4-3.2l6.4-9.7c0.9,0.5,2,0.8,3.2,0.8c1.2,0,2.4-0.4,3.4-1   l11.3,10.8c-0.4,0.7-0.6,1.4-0.6,2.2c0,2.5,2,4.5,4.5,4.5s4.5-2,4.5-4.5s-2-4.5-4.5-4.5c-0.9,0-1.8,0.3-2.5,0.8L36.3,34.7   c1-1.1,1.6-2.6,1.6-4.2c0-3.2-2.4-5.9-5.5-6.4v-7.8c2-0.5,3.5-2.2,3.5-4.3c0-2.5-2-4.5-4.5-4.5s-4.5,2-4.5,4.5   c0,2.1,1.5,3.9,3.5,4.3v7.8c-2.7,0.4-4.9,2.6-5.4,5.3l-7.7-1c-0.1-2.4-2-4.3-4.5-4.3c-2.5,0-4.5,2-4.5,4.5S10.4,33,12.9,33z    M18.8,51.5c-1.4,0-2.5-1.1-2.5-2.5c0-1.4,1.1-2.5,2.5-2.5c1.4,0,2.5,1.1,2.5,2.5C21.2,50.4,20.1,51.5,18.8,51.5z M49.9,46.6   c1.4,0,2.5,1.1,2.5,2.5c0,1.4-1.1,2.5-2.5,2.5c-1.4,0-2.5-1.1-2.5-2.5C47.5,47.7,48.6,46.6,49.9,46.6z M28.9,12   c0-1.4,1.1-2.5,2.5-2.5c1.4,0,2.5,1.1,2.5,2.5c0,1.4-1.1,2.5-2.5,2.5C30,14.4,28.9,13.3,28.9,12z M31.4,26c2.5,0,4.5,2,4.5,4.5   s-2,4.5-4.5,4.5c-2.5,0-4.5-2-4.5-4.5S28.9,26,31.4,26z M12.9,26c1.4,0,2.5,1.1,2.5,2.5S14.2,31,12.9,31s-2.5-1.1-2.5-2.5   S11.5,26,12.9,26z"/></g></svg>