<?xml version="1.0" ?><svg id="Layer_1" style="enable-background:new 0 0 65 65;" version="1.1" viewBox="0 0 65 65" xml:space="preserve" xmlns="http://www.w3.org/2000/svg" xmlns:xlink="http://www.w3.org/1999/xlink"><style type="text/css">
	.st0{fill:#56E0C5;}
	.st1{fill:#FFFFFF;}
	.st2{fill:#FF4055;}
	.st3{fill:#FBD51A;}
	.st4{fill:#BEE920;}
	.st5{fill:#7EAEF4;}
	.st6{fill:#76D6ED;}
	.st7{fill:#FF9F0D;}
	.st8{fill:#DE72F5;}
	.st9{fill:#DEBB7E;}
	.st10{fill:#C6DEAC;}
</style><g><circle class="st5" cx="32.5" cy="32.5" r="32"/><path class="st1" d="M16.2,10.5c-2,0-3.6,1.6-3.6,3.6v36.8c0,2,1.6,3.6,3.6,3.6h32.5c2,0,3.6-1.6,3.6-3.6V14.1c0-2-1.6-3.6-3.6-3.6   H16.2z M49.4,14.1v36.8c0,0.3-0.3,0.6-0.6,0.6H16.2c-0.3,0-0.6-0.3-0.6-0.6V14.1c0-0.3,0.3-0.6,0.6-0.6h32.5   C49.1,13.5,49.4,13.8,49.4,14.1z"/><path class="st1" d="M18.8,27.6h27.4V16.6H18.8V27.6z M21.8,19.6h21.4v5.1H21.8V19.6z"/><path class="st1" d="M18.8,38h7.6v-7.6h-7.6V38z M21.8,33.4h1.6V35h-1.6V33.4z"/><path class="st1" d="M28.7,38h7.6v-7.6h-7.6V38z M31.7,33.4h1.6V35h-1.6V33.4z"/><path class="st1" d="M38.6,38h7.6v-7.6h-7.6V38z M41.6,33.4h1.6V35h-1.6V33.4z"/><path class="st1" d="M18.8,48.4h7.6v-7.6h-7.6V48.4z M21.8,43.8h1.6v1.6h-1.6V43.8z"/><path class="st1" d="M28.7,48.4h7.6v-7.6h-7.6V48.4z M31.7,43.8h1.6v1.6h-1.6V43.8z"/><path class="st1" d="M38.6,48.4h7.6v-7.6h-7.6V48.4z M41.6,43.8h1.6v1.6h-1.6V43.8z"/></g></svg>