<svg xmlns="http://www.w3.org/2000/svg" width="19.102" height="19.102" viewBox="0 0 19.102 19.102">
  <path id="_111025_phone_icon" data-name="111025_phone_icon" d="M41.5,31.949c-3.4,0-6.813.609-8.051,1.823a6.683,6.683,0,0,0-1.484,3.912s-.016.111-.016.159a.8.8,0,0,0,.8.8c.052,0,1.966-.155,3.12-.251a.629.629,0,0,0,.084-.016.8.8,0,0,0,.776-.8l0-1.568a.877.877,0,0,1,.88-.876h7.784a.877.877,0,0,1,.88.876l0,1.568a.8.8,0,0,0,.776.8.61.61,0,0,0,.084.016c1.154.1,3.068.251,3.12.251a.8.8,0,0,0,.8-.8c0-.048-.016-.159-.016-.159a6.683,6.683,0,0,0-1.484-3.912C48.314,32.558,44.9,31.949,41.5,31.949Zm0,10.347a1.592,1.592,0,1,0,1.592,1.592A1.591,1.591,0,0,0,41.5,42.3Zm-1.194-3.582v-.995a.995.995,0,0,0-1.99,0v.995l-5.369,5.735a1.99,1.99,0,0,0-.6,1.425v1.6a1.591,1.591,0,0,0,1.592,1.592h.4v1a.995.995,0,0,0,1.99,0v-1H46.675v1a.995.995,0,0,0,1.99,0v-1h.4a1.591,1.591,0,0,0,1.592-1.592v-1.6a1.99,1.99,0,0,0-.6-1.425l-5.369-5.735v-.995a.995.995,0,0,0-1.99,0v.995ZM41.5,40.7a3.184,3.184,0,1,1-3.184,3.184A3.183,3.183,0,0,1,41.5,40.7Z" transform="translate(-31.95 -31.949)" fill="#f7f7f7" fill-rule="evenodd"/>
</svg>
